<svg width="102" height="26" viewBox="0 0 102 26" fill="none" xmlns="http://www.w3.org/2000/svg">
<path d="M0.104714 0.324998V25H14.6297V19.75H6.96471V0.324998H0.104714ZM36.7571 15.165C36.7571 8.935 32.3121 5.12 26.4671 5.12C20.6221 5.12 16.1771 8.935 16.1771 15.165C16.1771 21.43 20.5871 25.245 26.4321 25.245C32.2771 25.245 36.7571 21.43 36.7571 15.165ZM23.1771 15.165C23.1771 12.365 24.7171 11.07 26.4671 11.07C28.2171 11.07 29.7921 12.365 29.7921 15.165C29.7921 18 28.1821 19.295 26.4321 19.295C24.6471 19.295 23.1771 18 23.1771 15.165ZM38.4281 15.165C38.4281 21.43 42.5231 25.245 48.3681 25.245C53.3381 25.245 56.9781 22.34 57.9581 17.475H50.6781C50.2931 18.7 49.5231 19.4 48.2281 19.4C46.5481 19.4 45.4281 18 45.4281 15.165C45.4281 12.365 46.5481 10.965 48.2281 10.965C49.5231 10.965 50.2931 11.7 50.6781 12.89H57.9581C56.9781 7.955 53.3381 5.12 48.3681 5.12C42.5231 5.12 38.4281 8.935 38.4281 15.165ZM80.8978 5.365H74.0028V15.9C74.0028 18.175 72.7428 19.505 70.7478 19.505C68.7878 19.505 67.4928 18.175 67.4928 15.9V5.365H60.6678V16.775C60.6678 21.955 63.5028 25.175 68.0528 25.175C70.8178 25.175 72.8828 23.88 74.0028 22.2V25H80.8978V5.365ZM101.322 19.225C101.287 11.77 90.822 14.01 90.822 11.21C90.822 10.475 91.417 10.02 92.537 10.02C94.007 10.02 94.882 10.755 95.092 11.98H101.287C100.832 8.095 98.032 5.12 92.677 5.12C87.357 5.12 84.522 7.955 84.522 11.385C84.522 18.595 94.952 16.25 94.952 19.12C94.952 19.82 94.287 20.38 93.132 20.38C91.697 20.38 90.612 19.68 90.437 18.385H83.787C84.067 22.305 87.707 25.245 93.167 25.245C98.242 25.245 101.322 22.655 101.322 19.225Z" fill="#58A9A5"/>
</svg>
